<mxfile host="app.diagrams.net" modified="2022-11-21T08:35:40.408Z" agent="5.0 (Windows NT 10.0; Win64; x64) AppleWebKit/537.36 (KHTML, like Gecko) Chrome/107.0.0.0 Safari/537.36" etag="EPYo4e1THcZQYgAY0Afc" version="20.5.3" type="github">
  <diagram id="ZOZqnD1yYS-OkSdULsZs" name="Page-1">
    <mxGraphModel dx="1732" dy="972" grid="0" gridSize="10" guides="1" tooltips="1" connect="1" arrows="1" fold="1" page="0" pageScale="1" pageWidth="850" pageHeight="1100" math="0" shadow="0">
      <root>
        <mxCell id="0" />
        <mxCell id="1" parent="0" />
        <mxCell id="lavz1fw5G-ez8bK98r5R-1" value="Start" style="ellipse;whiteSpace=wrap;html=1;fontSize=16;" vertex="1" parent="1">
          <mxGeometry x="238" y="1" width="67" height="49" as="geometry" />
        </mxCell>
        <mxCell id="lavz1fw5G-ez8bK98r5R-2" value="" style="edgeStyle=none;orthogonalLoop=1;jettySize=auto;html=1;rounded=0;fontSize=12;endArrow=open;startSize=14;endSize=14;sourcePerimeterSpacing=8;targetPerimeterSpacing=8;curved=1;" edge="1" parent="1">
          <mxGeometry width="140" relative="1" as="geometry">
            <mxPoint x="272.5" y="50" as="sourcePoint" />
            <mxPoint x="270.5" y="118" as="targetPoint" />
            <Array as="points" />
          </mxGeometry>
        </mxCell>
        <mxCell id="lavz1fw5G-ez8bK98r5R-3" value="Enter Three numbers&lt;br&gt;I,J,K" style="shape=parallelogram;perimeter=parallelogramPerimeter;whiteSpace=wrap;html=1;fixedSize=1;fontSize=16;" vertex="1" parent="1">
          <mxGeometry x="182" y="68" width="186" height="61" as="geometry" />
        </mxCell>
        <mxCell id="lavz1fw5G-ez8bK98r5R-4" value="" style="edgeStyle=none;orthogonalLoop=1;jettySize=auto;html=1;rounded=0;fontSize=12;endArrow=open;startSize=14;endSize=14;sourcePerimeterSpacing=8;targetPerimeterSpacing=8;curved=1;" edge="1" parent="1">
          <mxGeometry width="140" relative="1" as="geometry">
            <mxPoint x="274" y="129" as="sourcePoint" />
            <mxPoint x="272" y="197" as="targetPoint" />
            <Array as="points" />
          </mxGeometry>
        </mxCell>
        <mxCell id="lavz1fw5G-ez8bK98r5R-5" value="A=I&lt;br&gt;B=J&lt;br&gt;C=K" style="rounded=0;whiteSpace=wrap;html=1;fontSize=16;" vertex="1" parent="1">
          <mxGeometry x="194.5" y="193" width="173.5" height="75" as="geometry" />
        </mxCell>
        <mxCell id="lavz1fw5G-ez8bK98r5R-7" value="A,B,C" style="shape=parallelogram;perimeter=parallelogramPerimeter;whiteSpace=wrap;html=1;fixedSize=1;fontSize=16;" vertex="1" parent="1">
          <mxGeometry x="212" y="682" width="115" height="58" as="geometry" />
        </mxCell>
        <mxCell id="lavz1fw5G-ez8bK98r5R-8" value="" style="edgeStyle=none;orthogonalLoop=1;jettySize=auto;html=1;rounded=0;fontSize=12;endArrow=open;startSize=14;endSize=14;sourcePerimeterSpacing=8;targetPerimeterSpacing=8;curved=1;" edge="1" parent="1">
          <mxGeometry width="140" relative="1" as="geometry">
            <mxPoint x="276" y="266" as="sourcePoint" />
            <mxPoint x="276" y="334" as="targetPoint" />
            <Array as="points" />
          </mxGeometry>
        </mxCell>
        <mxCell id="lavz1fw5G-ez8bK98r5R-9" value="" style="edgeStyle=none;orthogonalLoop=1;jettySize=auto;html=1;rounded=0;fontSize=12;endArrow=open;startSize=14;endSize=14;sourcePerimeterSpacing=8;targetPerimeterSpacing=8;curved=1;" edge="1" parent="1">
          <mxGeometry width="140" relative="1" as="geometry">
            <mxPoint x="270.75" y="408" as="sourcePoint" />
            <mxPoint x="271" y="443" as="targetPoint" />
            <Array as="points" />
          </mxGeometry>
        </mxCell>
        <mxCell id="lavz1fw5G-ez8bK98r5R-11" value="A&amp;gt;B" style="rhombus;whiteSpace=wrap;html=1;fontSize=16;" vertex="1" parent="1">
          <mxGeometry x="234.75" y="338" width="75.5" height="73" as="geometry" />
        </mxCell>
        <mxCell id="lavz1fw5G-ez8bK98r5R-12" value="B&amp;gt;C" style="rhombus;whiteSpace=wrap;html=1;fontSize=16;" vertex="1" parent="1">
          <mxGeometry x="234.75" y="445" width="75.5" height="73" as="geometry" />
        </mxCell>
        <mxCell id="lavz1fw5G-ez8bK98r5R-13" value="B&amp;gt;C" style="rhombus;whiteSpace=wrap;html=1;fontSize=16;" vertex="1" parent="1">
          <mxGeometry x="234.75" y="559" width="75.5" height="73" as="geometry" />
        </mxCell>
        <mxCell id="lavz1fw5G-ez8bK98r5R-15" value="" style="edgeStyle=none;orthogonalLoop=1;jettySize=auto;html=1;rounded=0;fontSize=12;endArrow=open;startSize=14;endSize=14;sourcePerimeterSpacing=8;targetPerimeterSpacing=8;curved=1;" edge="1" parent="1">
          <mxGeometry width="140" relative="1" as="geometry">
            <mxPoint x="270.75" y="515" as="sourcePoint" />
            <mxPoint x="274.25" y="563" as="targetPoint" />
            <Array as="points" />
          </mxGeometry>
        </mxCell>
        <mxCell id="lavz1fw5G-ez8bK98r5R-16" value="TEMP = A&lt;br&gt;A=B&lt;br&gt;B=TEMP" style="rounded=0;whiteSpace=wrap;html=1;fontSize=16;" vertex="1" parent="1">
          <mxGeometry x="353" y="394" width="94" height="59" as="geometry" />
        </mxCell>
        <mxCell id="lavz1fw5G-ez8bK98r5R-17" value="" style="edgeStyle=none;orthogonalLoop=1;jettySize=auto;html=1;rounded=0;fontSize=12;endArrow=open;startSize=14;endSize=14;sourcePerimeterSpacing=8;targetPerimeterSpacing=8;curved=1;" edge="1" parent="1">
          <mxGeometry width="140" relative="1" as="geometry">
            <mxPoint x="304" y="374" as="sourcePoint" />
            <mxPoint x="407" y="374" as="targetPoint" />
            <Array as="points" />
          </mxGeometry>
        </mxCell>
        <mxCell id="lavz1fw5G-ez8bK98r5R-18" value="" style="edgeStyle=none;orthogonalLoop=1;jettySize=auto;html=1;rounded=0;fontSize=12;endArrow=open;startSize=14;endSize=14;sourcePerimeterSpacing=8;targetPerimeterSpacing=8;curved=1;" edge="1" parent="1">
          <mxGeometry width="140" relative="1" as="geometry">
            <mxPoint x="352" y="428" as="sourcePoint" />
            <mxPoint x="272" y="430" as="targetPoint" />
            <Array as="points" />
          </mxGeometry>
        </mxCell>
        <mxCell id="lavz1fw5G-ez8bK98r5R-19" value="" style="edgeStyle=none;orthogonalLoop=1;jettySize=auto;html=1;rounded=0;fontSize=12;endArrow=open;startSize=14;endSize=14;sourcePerimeterSpacing=8;targetPerimeterSpacing=8;curved=1;entryX=0.5;entryY=0;entryDx=0;entryDy=0;" edge="1" parent="1" target="lavz1fw5G-ez8bK98r5R-16">
          <mxGeometry width="140" relative="1" as="geometry">
            <mxPoint x="400" y="370" as="sourcePoint" />
            <mxPoint x="498" y="374" as="targetPoint" />
            <Array as="points" />
          </mxGeometry>
        </mxCell>
        <mxCell id="lavz1fw5G-ez8bK98r5R-21" value="TEMP = B&lt;br&gt;B=C&lt;br&gt;C =TEMP" style="rounded=0;whiteSpace=wrap;html=1;fontSize=16;" vertex="1" parent="1">
          <mxGeometry x="357" y="505.5" width="100" height="54" as="geometry" />
        </mxCell>
        <mxCell id="lavz1fw5G-ez8bK98r5R-22" value="" style="edgeStyle=none;orthogonalLoop=1;jettySize=auto;html=1;rounded=0;fontSize=12;endArrow=open;startSize=14;endSize=14;sourcePerimeterSpacing=8;targetPerimeterSpacing=8;curved=1;" edge="1" parent="1">
          <mxGeometry width="140" relative="1" as="geometry">
            <mxPoint x="310" y="481" as="sourcePoint" />
            <mxPoint x="413" y="481" as="targetPoint" />
            <Array as="points" />
          </mxGeometry>
        </mxCell>
        <mxCell id="lavz1fw5G-ez8bK98r5R-23" value="" style="edgeStyle=none;orthogonalLoop=1;jettySize=auto;html=1;rounded=0;fontSize=12;endArrow=open;startSize=14;endSize=14;sourcePerimeterSpacing=8;targetPerimeterSpacing=8;curved=1;" edge="1" parent="1">
          <mxGeometry width="140" relative="1" as="geometry">
            <mxPoint x="352" y="537" as="sourcePoint" />
            <mxPoint x="278" y="537" as="targetPoint" />
            <Array as="points" />
          </mxGeometry>
        </mxCell>
        <mxCell id="lavz1fw5G-ez8bK98r5R-24" value="TEMP = A&amp;nbsp;&lt;br&gt;A=B&lt;br&gt;B =TEMP" style="rounded=0;whiteSpace=wrap;html=1;fontSize=16;" vertex="1" parent="1">
          <mxGeometry x="353" y="624" width="99" height="67" as="geometry" />
        </mxCell>
        <mxCell id="lavz1fw5G-ez8bK98r5R-25" value="" style="edgeStyle=none;orthogonalLoop=1;jettySize=auto;html=1;rounded=0;fontSize=12;endArrow=open;startSize=14;endSize=14;sourcePerimeterSpacing=8;targetPerimeterSpacing=8;curved=1;" edge="1" parent="1">
          <mxGeometry width="140" relative="1" as="geometry">
            <mxPoint x="310" y="597" as="sourcePoint" />
            <mxPoint x="403" y="595" as="targetPoint" />
            <Array as="points" />
          </mxGeometry>
        </mxCell>
        <mxCell id="lavz1fw5G-ez8bK98r5R-26" value="" style="edgeStyle=none;orthogonalLoop=1;jettySize=auto;html=1;rounded=0;fontSize=12;endArrow=open;startSize=14;endSize=14;sourcePerimeterSpacing=8;targetPerimeterSpacing=8;curved=1;" edge="1" parent="1">
          <mxGeometry width="140" relative="1" as="geometry">
            <mxPoint x="351" y="651" as="sourcePoint" />
            <mxPoint x="278" y="653" as="targetPoint" />
            <Array as="points" />
          </mxGeometry>
        </mxCell>
        <mxCell id="lavz1fw5G-ez8bK98r5R-27" value="" style="edgeStyle=none;orthogonalLoop=1;jettySize=auto;html=1;rounded=0;fontSize=12;endArrow=open;startSize=14;endSize=14;sourcePerimeterSpacing=8;targetPerimeterSpacing=8;curved=1;" edge="1" parent="1">
          <mxGeometry width="140" relative="1" as="geometry">
            <mxPoint x="270.75" y="632" as="sourcePoint" />
            <mxPoint x="274.25" y="680" as="targetPoint" />
            <Array as="points" />
          </mxGeometry>
        </mxCell>
        <mxCell id="lavz1fw5G-ez8bK98r5R-28" value="END" style="ellipse;whiteSpace=wrap;html=1;fontSize=16;" vertex="1" parent="1">
          <mxGeometry x="232" y="787" width="81" height="47" as="geometry" />
        </mxCell>
        <mxCell id="lavz1fw5G-ez8bK98r5R-29" value="" style="edgeStyle=none;orthogonalLoop=1;jettySize=auto;html=1;rounded=0;fontSize=12;endArrow=open;startSize=14;endSize=14;sourcePerimeterSpacing=8;targetPerimeterSpacing=8;curved=1;" edge="1" parent="1">
          <mxGeometry width="140" relative="1" as="geometry">
            <mxPoint x="271.5" y="738" as="sourcePoint" />
            <mxPoint x="275" y="786" as="targetPoint" />
            <Array as="points" />
          </mxGeometry>
        </mxCell>
        <mxCell id="lavz1fw5G-ez8bK98r5R-30" value="FALSE" style="text;html=1;align=center;verticalAlign=middle;resizable=0;points=[];autosize=1;strokeColor=none;fillColor=none;fontSize=16;" vertex="1" parent="1">
          <mxGeometry x="205" y="517" width="68" height="31" as="geometry" />
        </mxCell>
        <mxCell id="lavz1fw5G-ez8bK98r5R-31" value="FALSE" style="text;html=1;align=center;verticalAlign=middle;resizable=0;points=[];autosize=1;strokeColor=none;fillColor=none;fontSize=16;" vertex="1" parent="1">
          <mxGeometry x="201" y="419" width="68" height="31" as="geometry" />
        </mxCell>
        <mxCell id="lavz1fw5G-ez8bK98r5R-32" value="FALSE" style="text;html=1;align=center;verticalAlign=middle;resizable=0;points=[];autosize=1;strokeColor=none;fillColor=none;fontSize=16;" vertex="1" parent="1">
          <mxGeometry x="207" y="628" width="68" height="31" as="geometry" />
        </mxCell>
        <mxCell id="lavz1fw5G-ez8bK98r5R-33" value="TRUE" style="text;html=1;align=center;verticalAlign=middle;resizable=0;points=[];autosize=1;strokeColor=none;fillColor=none;fontSize=16;" vertex="1" parent="1">
          <mxGeometry x="320" y="570" width="62" height="31" as="geometry" />
        </mxCell>
        <mxCell id="lavz1fw5G-ez8bK98r5R-34" value="TRUE" style="text;html=1;align=center;verticalAlign=middle;resizable=0;points=[];autosize=1;strokeColor=none;fillColor=none;fontSize=16;" vertex="1" parent="1">
          <mxGeometry x="325" y="456" width="62" height="31" as="geometry" />
        </mxCell>
        <mxCell id="lavz1fw5G-ez8bK98r5R-35" value="TRUE" style="text;html=1;align=center;verticalAlign=middle;resizable=0;points=[];autosize=1;strokeColor=none;fillColor=none;fontSize=16;" vertex="1" parent="1">
          <mxGeometry x="324" y="348" width="62" height="31" as="geometry" />
        </mxCell>
        <mxCell id="lavz1fw5G-ez8bK98r5R-39" value="" style="edgeStyle=none;orthogonalLoop=1;jettySize=auto;html=1;rounded=0;fontSize=12;endArrow=open;startSize=14;endSize=14;sourcePerimeterSpacing=8;targetPerimeterSpacing=8;curved=1;entryX=0.5;entryY=0;entryDx=0;entryDy=0;" edge="1" parent="1" target="lavz1fw5G-ez8bK98r5R-21">
          <mxGeometry width="140" relative="1" as="geometry">
            <mxPoint x="408" y="484" as="sourcePoint" />
            <mxPoint x="148" y="600" as="targetPoint" />
            <Array as="points" />
          </mxGeometry>
        </mxCell>
        <mxCell id="lavz1fw5G-ez8bK98r5R-41" value="" style="edgeStyle=none;orthogonalLoop=1;jettySize=auto;html=1;rounded=0;fontSize=12;endArrow=open;startSize=14;endSize=14;sourcePerimeterSpacing=8;targetPerimeterSpacing=8;curved=1;entryX=0.5;entryY=0;entryDx=0;entryDy=0;" edge="1" parent="1" target="lavz1fw5G-ez8bK98r5R-24">
          <mxGeometry width="140" relative="1" as="geometry">
            <mxPoint x="403" y="595" as="sourcePoint" />
            <mxPoint x="550" y="597" as="targetPoint" />
            <Array as="points" />
          </mxGeometry>
        </mxCell>
        <mxCell id="lavz1fw5G-ez8bK98r5R-42" value="&lt;h3 style=&quot;box-sizing: border-box; font-family: aktiv-grotesk, sans-serif; font-weight: 500; line-height: 1.1; color: rgb(51, 51, 51); margin-top: 0px; margin-bottom: 0px; font-size: 16px; text-align: start;&quot; class=&quot;panel-title&quot;&gt;1. Order marches with weighty and measured strides. Disorder is always in a hurry.&lt;/h3&gt;" style="text;html=1;align=center;verticalAlign=middle;resizable=0;points=[];autosize=1;strokeColor=none;fillColor=none;fontSize=16;" vertex="1" parent="1">
          <mxGeometry x="-34" y="-62" width="605" height="30" as="geometry" />
        </mxCell>
      </root>
    </mxGraphModel>
  </diagram>
</mxfile>
